# AST/ASF file generated using VICON BodyLanguage
# -----------------------------------------------
:version 1.10
:name VICON
:units
  mass 1.0
  length 0.45
  angle deg
:documentation
   .ast/.asf automatically generated from VICON data using
   VICON BodyBuilder and BodyLanguage model FoxedUp or BRILLIANT.MOD
:root
   order TX TY TZ RX RY RZ
   axis XYZ
   position 0 0 0  
   orientation 0 0 0 
:bonedata
  begin
     id 1 
     name lhipjoint
     direction 0.623529 -0.717805 0.309788 
     length 2.23224 
     axis 0 0 0  XYZ
  end
  begin
     id 2 
     name lfemur
     direction 0.34202 -0.939693 0  
     length 7.11402  
     axis 0 0 20  XYZ
    dof rx ry rz
    limits (-160.0 20.0)
           (-70.0 70.0)
           (-60.0 70.0)
  end
  begin
     id 3 
     name ltibia
     direction 0.34202 -0.939693 0   
     length 6.78496   
     axis 0 0 20   XYZ
    dof rx
    limits (-10.0 170.0)
  end
  begin
     id 4 
     name lfoot
     direction 0.125078 -0.343648 0.930732   
     length 1.84054   
     axis -90 7.62852e-016 20   XYZ
    dof rx rz
    limits (-45.0 90.0)
           (-70.0 20.0)
  end
  begin
     id 5 
     name ltoes
     direction 1.53565e-011 -4.21893e-011 1   
     length 0.916474   
     axis -90 7.62852e-016 20   XYZ
    dof rx
    limits (-90.0 20.0)
  end
  begin
     id 6 
     name rhipjoint
     direction -0.564688 -0.757748 0.327026   
     length 2.11457  
     axis 0 0 0  XYZ 
  end
  begin
     id 7 
     name rfemur
     direction -0.34202 -0.939693 0   
     length 7.14609   
     axis 0 0 -20   XYZ
    dof rx ry rz
    limits (-160.0 20.0)
           (-70.0 70.0)
           (-70.0 60.0)
  end
  begin
     id 8 
     name rtibia
     direction -0.34202 -0.939693 0   
     length 6.78101   
     axis 0 0 -20   XYZ
    dof rx
    limits (-10.0 170.0)
 end
 begin
     id 9 
     name rfoot
     direction -0.0992671 -0.272734 0.956955   
     length 1.96168  
     axis -90 -7.62852e-016 -20   XYZ
    dof rx rz
    limits (-45.0 90.0)
           (-20.0 70.0)
  end
  begin
     id 10 
     name rtoes
     direction -1.5356e-011 -4.21891e-011 1   
     length 0.982933   
     axis -90 -7.62852e-016 -20   XYZ
    dof rx
    limits (-90.0 20.0)
  end
  begin
     id 11 
     name lowerback
     direction -0.00596953 0.998668 0.0512524   
     length 1.87557   
     axis 0 0 0   XYZ
    dof rx ry rz
    limits (-20.0 45.0)
           (-30.0 30.0)
           (-30.0 30.0)
  end
  begin
     id 12 
     name upperback
     direction 0.00584879 0.999652 0.0257308   
     length 1.87883   
     axis 0 0 0   XYZ
    dof rx ry rz
    limits (-20.0 45.0)
           (-30.0 30.0)
           (-30.0 30.0)
  end
  begin
     id 13 
     name thorax
     direction 0.010104 0.999947 0.00178881   
     length 1.87779   
     axis 0 0 0   XYZ
    dof rx ry rz
    limits (-20.0 45.0)
           (-30.0 30.0)
           (-30.0 30.0)
  end
  begin
     id 14 
     name lowerneck
     direction 0.0120771 0.995934 -0.0892773   
     length 1.40897   
     axis 0 0 0   XYZ
    dof rx ry rz
    limits (-20.0 45.0)
           (-30.0 30.0)
           (-30.0 30.0)
  end
  begin
     id 15 
     name upperneck
     direction -0.030568 0.999465 -0.0116366   
     length 1.38661   
     axis 0 0 0   XYZ
    dof rx ry rz
    limits (-20.0 45.0)
           (-30.0 30.0)
           (-30.0 30.0)
  end
  begin
     id 16
     name head
     direction -0.0170715 0.999854 -0.00104426  
     length 1.47052  
     axis 0 0 0   XYZ
    dof rx ry rz
    limits (-20.0 45.0)
           (-30.0 30.0)
           (-30.0 30.0)
  end
  begin
     id 17 
     name lclavicle
     direction 0.977763 0.206143 0.038532  
     length 3.02424  
     axis 0 0 0   XYZ
    dof ry rz
    limits (-20.0 10.0)
           (0.0 20.0)
  end
  begin
     id 18 
     name lhumerus
     direction 1 -4.48965e-011 -2.62654e-027   
     length 4.68382   
     axis 180 -30 -90   XYZ
    dof rx ry rz
    limits (-60.0 90.0)
           (-90.0 90.0)
           (-90.0 90.0)
  end
  begin
     id 19
     name lradius
     direction 1 -4.48973e-011 -1.54954e-027   
     length 2.98124   
     axis 180 -30 -90   XYZ
    dof rx
    limits (-10.0 170.0)
  end
  begin
     id 20
     name lwrist
     direction 1 -4.48959e-011 7.20928e-028   
     length 1.49062   
     axis -5.52449e-016 90 90   XYZ
    dof ry
    limits (-180.0 0.0)
 end
  begin
     id 21 
     name lhand
     direction 1 -4.48971e-011 1.44186e-027   
     length 0.707595   
     axis -9.20027e-016 90 90   XYZ
    dof rx rz
    limits (-90.0 90.0)
           (-45.0 45.0)
  end
  begin
     id 22 
     name lfingers
     direction 1 -4.48985e-011 2.88371e-027   
     length 0.570481   
     axis -1.84005e-015 90 90   XYZ
    dof rx
    limits (0.0 90.0)
  end
  begin
     id 23
     name lthumb
     direction 0.707107 -6.34929e-011 0.707107   
     length 0.819101   
     axis -90 45 2.85299e-015   XYZ
    dof rx rz
    limits (-45.0 45.0)
           (-45.0 45.0)
  end
  begin
     id 24 
     name rclavicle
     direction -0.958661 0.284411 -0.00895327   
     length 3.11921  
     axis 0 0 0   XYZ 
    dof ry rz
    limits (-10.0 20.0)
           (-20.0 0.0)
  end
  begin
     id 25 
     name rhumerus
     direction -1 -4.48963e-011 -4.22193e-027  
     length 4.75876   
     axis 180 30 90   XYZ
    dof rx ry rz
    limits (-90.0 60.0)
           (-90.0 90.0)
           (-90.0 90.0)
  end
  begin
     id 26 
     name rradius
     direction -1 -4.48968e-011 -1.07616e-027   
     length 2.93293   
     axis 180 30 90   XYZ
    dof rx
    limits (-10.0 170.0)
  end
  begin
     id 27 
     name rwrist
     direction -1 -4.48965e-011 7.20928e-028   
     length 1.46647   
     axis -5.52449e-016 -90 -90   XYZ
    dof ry
    limits (-180.0 0.0)
  end
  begin
     id 28
     name rhand
     direction -1 -4.48971e-011 1.44186e-027   
     length 0.831748   
     axis -9.20027e-016 -90 -90   XYZ
    dof rx rz
    limits (-90.0 90.0)
           (-45.0 45.0)
  end
  begin
     id 29
     name rfingers
     direction -1 -4.48961e-011 2.88371e-027   
     length 0.670577   
     axis -1.84005e-015 -90 -90   XYZ
    dof rx
    limits (0.0 90.0)
  end
  begin
     id 30
     name rthumb
     direction -0.707107 -6.34929e-011 0.707107   
     length 0.962818   
     axis -90 -45 -2.85299e-015   XYZ
    dof rx rz
    limits (-45.0 45.0)
           (-45.0 45.0)
  end
:hierarchy
  begin
    root lhipjoint rhipjoint lowerback
    lhipjoint lfemur
    lfemur ltibia
    ltibia lfoot
    lfoot ltoes
    rhipjoint rfemur
    rfemur rtibia
    rtibia rfoot
    rfoot rtoes
    lowerback upperback
    upperback thorax
    thorax lowerneck lclavicle rclavicle
    lowerneck upperneck
    upperneck head
    lclavicle lhumerus
    lhumerus lradius
    lradius lwrist
    lwrist lhand lthumb
    lhand lfingers
    rclavicle rhumerus
    rhumerus rradius
    rradius rwrist
    rwrist rhand rthumb
    rhand rfingers
  end

#!OML:ASF E:\id_vita\Project 1\Capture day 1\Session 1\Female.ASF
:FULLY-SPECIFIED
:DEGREES
1
root -20.9592 16.4322 2.80761 -166.75 6.7634 -179.593
lowerback -13.8989 -0.633093 -4.30857
upperback -4.31203 0.20794 0.885555
thorax 3.23181 0.318997 3.41113
lowerneck 5.92729 1.28621 -3.22956
upperneck -4.40936 1.81328 5.41666
head -2.54726 0.813376 2.25508
rclavicle 2.1183e-015 9.54166e-015
rhumerus -33.6225 6.04834 -97.0302
rradius 24.5816
rwrist 15.6357
rhand -1.4972 5.63703
rfingers 7.12502
rthumb 24.1556 -22.862
lclavicle 2.1183e-015 9.54166e-015
lhumerus -33.3561 -16.8692 101.617
lradius 26.0501
lwrist -26.6863
lhand 30.6858 35.0965
lfingers 7.12502
lthumb 54.3224 53.7141
rfemur -16.3339 9.5198 16.8734
rtibia 22.3403
rfoot -7.58594 -24.1867
rtoes -9.25154
lfemur -22.5803 -13.7052 -14.8295
ltibia 26.9125
lfoot -21.5272 5.38942
ltoes -1.78458
2
root -20.9615 16.4304 2.80579 -166.732 6.71911 -179.577
lowerback -13.9108 -0.637236 -4.27304
upperback -4.33003 0.200252 0.898792
thorax 3.22018 0.317114 3.40369
lowerneck 5.9005 1.26297 -3.42619
upperneck -4.40789 1.77889 5.59882
head -2.54727 0.795424 2.35395
rclavicle -9.48576e-015 -3.57812e-015
rhumerus -33.7587 5.83968 -96.9278
rradius 24.9028
rwrist 15.8467
rhand -1.86777 5.40232
rfingers 7.12502
rthumb 23.8002 -23.1435
lclavicle -9.48576e-015 -3.57812e-015
lhumerus -33.2294 -16.7181 101.603
lradius 25.8093
lwrist -26.7996
lhand 30.7156 35.1291
lfingers 7.12502
lthumb 54.3491 53.7283
rfemur -16.3167 9.34771 16.9084
rtibia 22.2835
rfoot -7.54318 -24.1202
rtoes -9.56512
lfemur -22.6141 -13.8285 -14.7954
ltibia 26.9525
lfoot -21.5172 5.50739
ltoes -1.96231
3
root -20.9602 16.4322 2.80169 -166.734 6.7397 -179.492
lowerback -13.9422 -0.620781 -4.24522
upperback -4.32485 0.217444 0.957428
thorax 3.24085 0.325299 3.45293
lowerneck 6.0079 1.22939 -3.52677
upperneck -4.61587 1.73333 5.62925
head -2.63723 0.770808 2.38736
rclavicle 1.31943e-014 4.42296e-015
rhumerus -33.7522 6.17889 -97.0584
rradius 24.8848
rwrist 15.317
rhand -2.50332 4.94333
rfingers 7.12502
rthumb 23.1906 -23.6806
lclavicle 1.31943e-014 4.42296e-015
lhumerus -33.129 -16.6603 101.69
lradius 25.728
lwrist -26.7068
lhand 30.6857 35.5914
lfingers 7.12502
lthumb 54.3223 54.2092
rfemur -16.2777 9.42843 16.9992
rtibia 22.2506
rfoot -7.62237 -24.1579
rtoes -9.02538
lfemur -22.5782 -13.8175 -14.7109
ltibia 26.9636
lfoot -21.5385 5.52133
ltoes -2.04202
4
root -20.9558 16.4328 2.79849 -166.747 6.73176 -179.44
lowerback -13.9554 -0.654237 -4.2545
upperback -4.31706 0.172493 1.00183
thorax 3.2599 0.302256 3.49784
lowerneck 6.22849 1.21761 -3.50922
upperneck -5.04378 1.72753 5.55902
head -2.82113 0.764385 2.36627
rclavicle 8.5788e-015 -1.78409e-014
rhumerus -33.8741 5.87573 -96.9549
rradius 25.2526
rwrist 15.4031
rhand -2.41333 4.85928
rfingers 7.12502
rthumb 23.2769 -23.7537
lclavicle 8.5788e-015 -1.78409e-014
lhumerus -33.0624 -16.6264 101.737
lradius 25.6689
lwrist -26.5468
lhand 30.4194 36.0692
lfingers 7.12502
lthumb 54.0836 54.8506
rfemur -16.2214 9.71044 17.0481
rtibia 22.2111
rfoot -7.55585 -24.3701
rtoes -8.71043
lfemur -22.5527 -13.738 -14.6626
ltibia 26.9811
lfoot -21.5789 5.46372
ltoes -2.24926
5
root -20.9542 16.4308 2.79639 -166.723 6.6899 -179.42
lowerback -13.9829 -0.695538 -4.24443
upperback -4.32503 0.11847 1.02519
thorax 3.27128 0.276292 3.50815
lowerneck 6.49687 1.27386 -3.64252
upperneck -5.52044 1.82209 5.73412
head -3.04548 0.804158 2.45295
rclavicle 1.23045e-014 6.90777e-015
rhumerus -34.0002 6.21436 -97.0748
rradius 25.516
rwrist 14.886
rhand -2.58196 5.08201
rfingers 7.12502
rthumb 23.1151 -23.5514
lclavicle 1.23045e-014 6.90777e-015
lhumerus -32.9128 -16.3186 101.633
lradius 25.4194
lwrist -26.7768
lhand 30.2971 36.0236
lfingers 7.12502
lthumb 53.9738 54.8793
rfemur -16.2114 9.85456 17.0656
rtibia 22.1768
rfoot -7.37015 -24.5133
rtoes -9.34779
lfemur -22.5887 -13.6237 -14.6517
ltibia 26.9913
lfoot -21.6139 5.3818
ltoes -1.99355
6
root -20.9548 16.4282 2.79634 -166.797 6.67414 -179.381
lowerback -13.9087 -0.667494 -4.19299
upperback -4.29914 0.140857 1.0051
thorax 3.25654 0.284744 3.46073
lowerneck 6.8442 1.34811 -3.68286
upperneck -6.06236 1.95851 5.94428
head -3.31147 0.861007 2.53408
rclavicle -2.78454e-015 -1.78906e-015
rhumerus -34.0564 6.08941 -97.0678
rradius 25.8908
rwrist 14.6667
rhand -2.85788 5.03753
rfingers 7.12502
rthumb 22.8504 -23.6288
lclavicle -2.78454e-015 -1.78906e-015
lhumerus -32.7178 -16.026 101.471
lradius 25.1484
lwrist -27.1218
lhand 30.3351 35.9344
lfingers 7.12502
lthumb 54.008 54.767
rfemur -16.1013 9.98308 17.1126
rtibia 22.171
rfoot -7.28542 -24.6385
rtoes -9.96507
lfemur -22.5036 -13.3721 -14.6712
ltibia 26.9836
lfoot -21.6935 5.14046
ltoes -1.49287
7
root -20.9554 16.4283 2.79484 -166.885 6.68969 -179.375
lowerback -13.8422 -0.643949 -4.17957
upperback -4.26403 0.162574 0.968252
thorax 3.25564 0.291832 3.41727
lowerneck 7.07765 1.39011 -3.58719
upperneck -6.48648 2.04779 5.97289
head -3.50768 0.898554 2.52795
rclavicle -7.91101e-015 -7.65321e-015
rhumerus -34.1039 5.89573 -97.072
rradius 26.2439
rwrist 14.4485
rhand -2.89722 4.83773
rfingers 7.12502
rthumb 22.8126 -23.8332
lclavicle -7.91101e-015 -7.65321e-015
lhumerus -32.5915 -15.905 101.35
lradius 24.984
lwrist -27.24
lhand 30.2956 35.8829
lfingers 7.12502
lthumb 53.9725 54.7395
rfemur -15.9838 9.99306 17.1279
rtibia 22.1589
rfoot -7.42395 -24.6268
rtoes -9.85896
lfemur -22.3877 -13.4341 -14.6761
ltibia 26.9821
lfoot -21.7175 5.13782
ltoes -1.55985
8
root -20.9583 16.4303 2.79098 -166.86 6.72789 -179.408
lowerback -13.9049 -0.655641 -4.16012
upperback -4.26593 0.150612 0.929654
thorax 3.28894 0.285838 3.3643
lowerneck 7.16215 1.40687 -3.60805
upperneck -6.74191 2.088 6.03258
head -3.6175 0.91579 2.55412
rclavicle 8.67819e-015 1.19271e-015
rhumerus -34.2202 5.85436 -97.1417
rradius 26.6551
rwrist 13.9997
rhand -2.77729 4.94026
rfingers 7.12502
rthumb 22.9277 -23.7165
lclavicle 8.67819e-015 1.19271e-015
lhumerus -32.5443 -15.7931 101.241
lradius 24.9109
lwrist -27.2647
lhand 30.2148 35.775
lfingers 7.12502
lthumb 53.8999 54.6805
rfemur -16.0075 9.84163 17.0852
rtibia 22.1325
rfoot -7.47313 -24.461
rtoes -9.64979
lfemur -22.4028 -13.7358 -14.6777
ltibia 26.991
lfoot -21.6982 5.40903
ltoes -1.47271
9
root -20.9621 16.4305 2.78705 -166.807 6.75663 -179.382
lowerback -13.963 -0.661598 -4.03409
upperback -4.29164 0.133814 0.896158
thorax 3.29556 0.279849 3.2552
lowerneck 7.27281 1.40089 -3.72568
upperneck -7.00982 2.09683 6.18491
head -3.73992 0.916355 2.6329
rclavicle -6.16543e-015 -9.93923e-015
rhumerus -34.3398 5.79387 -97.2394
rradius 27.004
rwrist 13.6237
rhand -2.75954 5.19842
rfingers 7.12502
rthumb 22.9447 -23.4562
lclavicle -6.16543e-015 -9.93923e-015
lhumerus -32.5143 -15.5516 101.038
lradius 24.7961
lwrist -27.4986
lhand 30.1967 35.4647
lfingers 7.12502
lthumb 53.8837 54.3811
rfemur -16.0545 9.84685 17.0824
rtibia 22.1245
rfoot -7.44694 -24.4429
rtoes -8.99653
lfemur -22.4514 -13.8535 -14.6481
ltibia 26.9899
lfoot -21.6781 5.57224
ltoes -0.9266
